<?xml version="1.0" encoding="UTF-8" standalone="no"?>
<svg
   xmlns:dc="http://purl.org/dc/elements/1.1/"
   xmlns:cc="http://creativecommons.org/ns#"
   xmlns:rdf="http://www.w3.org/1999/02/22-rdf-syntax-ns#"
   xmlns:svg="http://www.w3.org/2000/svg"
   xmlns="http://www.w3.org/2000/svg"
   xmlns:sodipodi="http://sodipodi.sourceforge.net/DTD/sodipodi-0.dtd"
   xmlns:inkscape="http://www.inkscape.org/namespaces/inkscape"
   height="60"
   id="layer1"
   width="180"
   version="1.1"
   sodipodi:docname="keepbelow.svg"
   inkscape:version="0.92.1 r15371">
  <metadata
     id="metadata23">
    <rdf:RDF>
      <cc:Work
         rdf:about="">
        <dc:format>image/svg+xml</dc:format>
        <dc:type
           rdf:resource="http://purl.org/dc/dcmitype/StillImage" />
        <dc:title />
      </cc:Work>
    </rdf:RDF>
  </metadata>
  <defs
     id="defs21" />
  <sodipodi:namedview
     pagecolor="#fffffe"
     bordercolor="#666666"
     borderopacity="1"
     objecttolerance="10"
     gridtolerance="10"
     guidetolerance="10"
     inkscape:pageopacity="1"
     inkscape:pageshadow="2"
     inkscape:window-width="1920"
     inkscape:window-height="1003"
     id="namedview19"
     showgrid="true"
     inkscape:zoom="2.7973799"
     inkscape:cx="26.397648"
     inkscape:cy="29.166355"
     inkscape:window-x="0"
     inkscape:window-y="44"
     inkscape:window-maximized="1"
     inkscape:current-layer="layer1"
     showguides="true"
     inkscape:guide-bbox="true">
    <inkscape:grid
       type="xygrid"
       id="grid4537" />
  </sodipodi:namedview>
  <!-- 
	Generated using the Perl SVG Module V2.49
	by Ronan Oger
	Info: http://www.roitsystems.com/
 -->
  <g
     id="hover-center"
     transform="matrix(1,0,0,-1,40.793613,51.952103)">
    <rect
       y="21.952106"
       x="-49.206387"
       height="30"
       width="45"
       id="rect3820"
       style="fill:#00ff00;fill-opacity:1;stroke-width:0.99999994"
       transform="scale(-1,1)" />
    <rect
       y="37.948212"
       x="-32.206387"
       height="0.99999994"
       width="11"
       id="rect3822"
       style="fill:#000000;fill-opacity:1;stroke-width:0.99999994"
       transform="scale(-1,1)" />
    <rect
       y="28.948189"
       x="-32.206387"
       height="0.99999994"
       width="11"
       id="rect3824"
       style="fill:#000000;fill-opacity:1;stroke-width:0.99999994"
       transform="scale(-1,1)" />
    <rect
       y="29.948204"
       x="-32.206387"
       height="7.9999995"
       width="0.99999994"
       id="rect3826"
       style="fill:#000000;fill-opacity:1;stroke-width:0.99999994"
       transform="scale(-1,1)" />
    <rect
       y="29.948204"
       x="-22.206388"
       height="7.9999995"
       width="0.99999994"
       id="rect3828"
       style="fill:#000000;fill-opacity:1;stroke-width:0.99999994"
       transform="scale(-1,1)" />
    <rect
       transform="scale(-1,1)"
       style="fill:#000000;fill-opacity:1;stroke-width:0.99999994"
       id="rect3830"
       width="11"
       height="0.99999994"
       x="-32.206387"
       y="41.948212" />
  </g>
  <g
     id="pressed-center"
     transform="matrix(1,0,0,-1,85.793613,51.952103)">
    <rect
       y="21.952106"
       x="-49.206387"
       height="30"
       width="45"
       id="rect4639"
       style="fill:#ffcc00;fill-opacity:1;stroke-width:0.99999994"
       transform="scale(-1,1)" />
    <rect
       y="37.948212"
       x="-32.206387"
       height="0.99999994"
       width="11"
       id="rect4641"
       style="fill:#000000;fill-opacity:1;stroke-width:0.99999994"
       transform="scale(-1,1)" />
    <rect
       y="28.948189"
       x="-32.206387"
       height="0.99999994"
       width="11"
       id="rect4643"
       style="fill:#000000;fill-opacity:1;stroke-width:0.99999994"
       transform="scale(-1,1)" />
    <rect
       y="29.948204"
       x="-32.206387"
       height="7.9999995"
       width="0.99999994"
       id="rect4645"
       style="fill:#000000;fill-opacity:1;stroke-width:0.99999994"
       transform="scale(-1,1)" />
    <rect
       y="29.948204"
       x="-22.206388"
       height="7.9999995"
       width="0.99999994"
       id="rect4647"
       style="fill:#000000;fill-opacity:1;stroke-width:0.99999994"
       transform="scale(-1,1)" />
    <rect
       transform="scale(-1,1)"
       style="fill:#000000;fill-opacity:1;stroke-width:0.99999994"
       id="rect4649"
       width="11"
       height="0.99999994"
       x="-32.206387"
       y="41.948212" />
  </g>
  <g
     id="deactivated-center"
     transform="matrix(1,0,0,-1,130.79361,51.952103)">
    <rect
       y="21.952106"
       x="-49.206387"
       height="30"
       width="45"
       id="rect4653"
       style="fill:#000000;fill-opacity:1;stroke-width:0.99999994"
       transform="scale(-1,1)" />
    <rect
       y="37.948212"
       x="-32.206387"
       height="0.99999994"
       width="11"
       id="rect4655"
       style="fill:#bfbfbf;fill-opacity:1;stroke-width:0.99999994"
       transform="scale(-1,1)" />
    <rect
       y="28.948189"
       x="-32.206387"
       height="0.99999994"
       width="11"
       id="rect4657"
       style="fill:#bfbfbf;fill-opacity:1;stroke-width:0.99999994"
       transform="scale(-1,1)" />
    <rect
       y="29.948204"
       x="-32.206387"
       height="7.9999995"
       width="0.99999994"
       id="rect4659"
       style="fill:#bfbfbf;fill-opacity:1;stroke-width:0.99999994"
       transform="scale(-1,1)" />
    <rect
       y="29.948204"
       x="-22.206388"
       height="7.9999995"
       width="0.99999994"
       id="rect4661"
       style="fill:#bfbfbf;fill-opacity:1;stroke-width:0.99999994"
       transform="scale(-1,1)" />
    <rect
       transform="scale(-1,1)"
       style="fill:#bfbfbf;fill-opacity:1;stroke-width:0.99999994"
       id="rect4663"
       width="11"
       height="0.99999994"
       x="-32.206387"
       y="41.948212" />
  </g>
  <g
     id="active-center">
    <rect
       transform="scale(-1)"
       style="fill:#0066ff;fill-opacity:1;stroke-width:0.99999994"
       id="rect426"
       width="45"
       height="30"
       x="-45"
       y="-30" />
    <rect
       transform="scale(-1)"
       style="fill:#ffffff;fill-opacity:1;stroke-width:0.99999994"
       id="rect428"
       width="11"
       height="0.99999994"
       x="-28"
       y="-14.003895" />
    <rect
       transform="scale(-1)"
       style="fill:#ffffff;fill-opacity:1;stroke-width:0.99999994"
       id="rect430"
       width="11"
       height="0.99999994"
       x="-28"
       y="-23.003918" />
    <rect
       transform="scale(-1)"
       style="fill:#ffffff;fill-opacity:1;stroke-width:0.99999994"
       id="rect432"
       width="0.99999994"
       height="7.9999995"
       x="-28"
       y="-22.003902" />
    <rect
       transform="scale(-1)"
       style="fill:#ffffff;fill-opacity:1;stroke-width:0.99999994"
       id="rect434"
       width="0.99999994"
       height="7.9999995"
       x="-18.000002"
       y="-22.003902" />
    <rect
       y="-10.003895"
       x="-28"
       height="0.99999994"
       width="11"
       id="rect436"
       style="fill:#ffffff;fill-opacity:1;stroke-width:0.99999994"
       transform="scale(-1)" />
  </g>
  <g
     transform="matrix(1,0,0,-1,40.793613,81.952103)"
     id="hover-inactive-center">
    <rect
       transform="scale(-1,1)"
       style="fill:#009900;fill-opacity:1;stroke-width:0.99999994"
       id="rect36"
       width="45"
       height="30"
       x="-49.206387"
       y="21.952106" />
    <rect
       transform="scale(-1,1)"
       style="fill:#000000;fill-opacity:1;stroke-width:0.99999994"
       id="rect38"
       width="11"
       height="0.99999994"
       x="-32.206387"
       y="37.948212" />
    <rect
       transform="scale(-1,1)"
       style="fill:#000000;fill-opacity:1;stroke-width:0.99999994"
       id="rect40"
       width="11"
       height="0.99999994"
       x="-32.206387"
       y="28.948189" />
    <rect
       transform="scale(-1,1)"
       style="fill:#000000;fill-opacity:1;stroke-width:0.99999994"
       id="rect42"
       width="0.99999994"
       height="7.9999995"
       x="-32.206387"
       y="29.948204" />
    <rect
       transform="scale(-1,1)"
       style="fill:#000000;fill-opacity:1;stroke-width:0.99999994"
       id="rect44"
       width="0.99999994"
       height="7.9999995"
       x="-22.206388"
       y="29.948204" />
    <rect
       y="41.948212"
       x="-32.206387"
       height="0.99999994"
       width="11"
       id="rect46"
       style="fill:#000000;fill-opacity:1;stroke-width:0.99999994"
       transform="scale(-1,1)" />
  </g>
  <g
     transform="matrix(1,0,0,-1,85.793613,81.952103)"
     id="pressed-inactive-center">
    <rect
       transform="scale(-1,1)"
       style="fill:#ff9900;fill-opacity:1;stroke-width:0.99999994"
       id="rect50"
       width="45"
       height="30"
       x="-49.206387"
       y="21.952106" />
    <rect
       transform="scale(-1,1)"
       style="fill:#000000;fill-opacity:1;stroke-width:0.99999994"
       id="rect52"
       width="11"
       height="0.99999994"
       x="-32.206387"
       y="37.948212" />
    <rect
       transform="scale(-1,1)"
       style="fill:#000000;fill-opacity:1;stroke-width:0.99999994"
       id="rect54"
       width="11"
       height="0.99999994"
       x="-32.206387"
       y="28.948189" />
    <rect
       transform="scale(-1,1)"
       style="fill:#000000;fill-opacity:1;stroke-width:0.99999994"
       id="rect56"
       width="0.99999994"
       height="7.9999995"
       x="-32.206387"
       y="29.948204" />
    <rect
       transform="scale(-1,1)"
       style="fill:#000000;fill-opacity:1;stroke-width:0.99999994"
       id="rect58"
       width="0.99999994"
       height="7.9999995"
       x="-22.206388"
       y="29.948204" />
    <rect
       y="41.948212"
       x="-32.206387"
       height="0.99999994"
       width="11"
       id="rect60"
       style="fill:#000000;fill-opacity:1;stroke-width:0.99999994"
       transform="scale(-1,1)" />
  </g>
  <g
     transform="matrix(1,0,0,-1,130.79361,81.952103)"
     id="deactivated-inactive-center">
    <rect
       transform="scale(-1,1)"
       style="fill:#333333;fill-opacity:1;stroke-width:0.99999994"
       id="rect64"
       width="45"
       height="30"
       x="-49.206387"
       y="21.952106" />
    <rect
       transform="scale(-1,1)"
       style="fill:#bfbfbf;fill-opacity:1;stroke-width:0.99999994"
       id="rect66"
       width="11"
       height="0.99999994"
       x="-32.206387"
       y="37.948212" />
    <rect
       transform="scale(-1,1)"
       style="fill:#bfbfbf;fill-opacity:1;stroke-width:0.99999994"
       id="rect68"
       width="11"
       height="0.99999994"
       x="-32.206387"
       y="28.948189" />
    <rect
       transform="scale(-1,1)"
       style="fill:#bfbfbf;fill-opacity:1;stroke-width:0.99999994"
       id="rect70"
       width="0.99999994"
       height="7.9999995"
       x="-32.206387"
       y="29.948204" />
    <rect
       transform="scale(-1,1)"
       style="fill:#bfbfbf;fill-opacity:1;stroke-width:0.99999994"
       id="rect72"
       width="0.99999994"
       height="7.9999995"
       x="-22.206388"
       y="29.948204" />
    <rect
       y="41.948212"
       x="-32.206387"
       height="0.99999994"
       width="11"
       id="rect74"
       style="fill:#bfbfbf;fill-opacity:1;stroke-width:0.99999994"
       transform="scale(-1,1)" />
  </g>
  <g
     transform="matrix(1,0,0,-1,-4.2063866,81.952106)"
     id="inactive-center">
    <rect
       y="21.952106"
       x="-49.206387"
       height="30"
       width="45"
       id="rect78"
       style="fill:#999999;fill-opacity:1;stroke-width:0.99999994"
       transform="scale(-1,1)" />
    <rect
       y="37.948212"
       x="-32.206387"
       height="0.99999994"
       width="11"
       id="rect80"
       style="fill:#000000;fill-opacity:1;stroke-width:0.99999994"
       transform="scale(-1,1)" />
    <rect
       y="28.948189"
       x="-32.206387"
       height="0.99999994"
       width="11"
       id="rect82"
       style="fill:#000000;fill-opacity:1;stroke-width:0.99999994"
       transform="scale(-1,1)" />
    <rect
       y="29.948204"
       x="-32.206387"
       height="7.9999995"
       width="0.99999994"
       id="rect84"
       style="fill:#000000;fill-opacity:1;stroke-width:0.99999994"
       transform="scale(-1,1)" />
    <rect
       y="29.948204"
       x="-22.206388"
       height="7.9999995"
       width="0.99999994"
       id="rect86"
       style="fill:#000000;fill-opacity:1;stroke-width:0.99999994"
       transform="scale(-1,1)" />
    <rect
       transform="scale(-1,1)"
       style="fill:#000000;fill-opacity:1;stroke-width:0.99999994"
       id="rect88"
       width="11"
       height="0.99999994"
       x="-32.206387"
       y="41.948212" />
  </g>
</svg>
