<?xml version="1.0" encoding="UTF-8" standalone="no"?>
<svg
   xmlns:dc="http://purl.org/dc/elements/1.1/"
   xmlns:cc="http://creativecommons.org/ns#"
   xmlns:rdf="http://www.w3.org/1999/02/22-rdf-syntax-ns#"
   xmlns:svg="http://www.w3.org/2000/svg"
   xmlns="http://www.w3.org/2000/svg"
   xmlns:xlink="http://www.w3.org/1999/xlink"
   xmlns:sodipodi="http://sodipodi.sourceforge.net/DTD/sodipodi-0.dtd"
   xmlns:inkscape="http://www.inkscape.org/namespaces/inkscape"
   height="60"
   id="layer1"
   width="180"
   version="1.1"
   sodipodi:docname="shade.svg"
   inkscape:version="0.92.1 r15371">
  <metadata
     id="metadata23">
    <rdf:RDF>
      <cc:Work
         rdf:about="">
        <dc:format>image/svg+xml</dc:format>
        <dc:type
           rdf:resource="http://purl.org/dc/dcmitype/StillImage" />
        <dc:title />
      </cc:Work>
    </rdf:RDF>
  </metadata>
  <defs
     id="defs21" />
  <sodipodi:namedview
     pagecolor="#fffffe"
     bordercolor="#666666"
     borderopacity="1"
     objecttolerance="10"
     gridtolerance="10"
     guidetolerance="10"
     inkscape:pageopacity="1"
     inkscape:pageshadow="2"
     inkscape:window-width="954"
     inkscape:window-height="996"
     id="namedview19"
     showgrid="true"
     inkscape:zoom="5.2444445"
     inkscape:cx="111.48858"
     inkscape:cy="37.871299"
     inkscape:window-x="0"
     inkscape:window-y="44"
     inkscape:window-maximized="0"
     inkscape:current-layer="layer1"
     showguides="true"
     inkscape:guide-bbox="true">
    <inkscape:grid
       type="xygrid"
       id="grid4611" />
  </sodipodi:namedview>
  <!-- 
	Generated using the Perl SVG Module V2.49
	by Ronan Oger
	Info: http://www.roitsystems.com/
 -->
  <g
     transform="matrix(0,-0.75000001,0.75000001,0,-9.2508408,3.898125)"
     id="g5121"
     style="fill:#000000" />
  <g
     id="g5390-3-1"
     transform="matrix(-3.7795276,0,0,3.7795276,359.8317,-402.83254)"
     style="fill:#000000" />
  <rect
     y="-35"
     x="-4.8800893e-16"
     height="30"
     width="45"
     id="rect5509-6"
     style="fill:#800000;fill-opacity:1;stroke-width:0.99999994" />
  <g
     id="g10957"
     transform="translate(-14)">
    <rect
       style="fill:#ffffff;fill-opacity:1;stroke-width:0.50000006"
       id="rect5299-5-7"
       width="0.99999994"
       height="1.9999999"
       x="14.999989"
       y="17.000004"
       transform="rotate(-90)" />
    <rect
       style="fill:#ffffff;fill-opacity:1;stroke-width:0.50000012"
       id="rect5299-2-3-5"
       width="0.99999994"
       height="1.9999999"
       x="16.000004"
       y="17.999989"
       transform="rotate(-90)" />
    <rect
       style="fill:#ffffff;fill-opacity:1;stroke-width:0.50000012"
       id="rect5299-7-5-3"
       width="0.99999994"
       height="1.9999999"
       x="16.999992"
       y="19.000004"
       transform="rotate(-90)" />
    <rect
       style="fill:#ffffff;fill-opacity:1;stroke-width:0.50000012"
       id="rect5299-0-6-5"
       width="0.99999994"
       height="1.9999999"
       x="18.000008"
       y="19.999992"
       transform="rotate(-90)" />
    <rect
       style="fill:#ffffff;fill-opacity:1;stroke-width:0.50000012"
       id="rect5299-9-2-6"
       width="0.99999994"
       height="1.9999999"
       x="18.999996"
       y="21.000008"
       transform="rotate(-90)" />
    <rect
       style="fill:#ffffff;fill-opacity:1;stroke-width:0.50000006"
       id="rect5299-6-1-2"
       width="0.99999994"
       height="1.9999999"
       x="14.999989"
       y="-28.000015"
       transform="matrix(0,-1,-1,0,0,0)" />
    <rect
       style="fill:#ffffff;fill-opacity:1;stroke-width:0.50000012"
       id="rect5299-2-0-2-9"
       width="0.99999994"
       height="1.9999999"
       x="16.000004"
       y="-27.000031"
       transform="matrix(0,-1,-1,0,0,0)" />
    <rect
       style="fill:#ffffff;fill-opacity:1;stroke-width:0.50000012"
       id="rect5299-7-6-7-1"
       width="0.99999994"
       height="1.9999999"
       x="16.999992"
       y="-26.000015"
       transform="matrix(0,-1,-1,0,0,0)" />
    <rect
       style="fill:#ffffff;fill-opacity:1;stroke-width:0.50000012"
       id="rect5299-0-2-0-2"
       width="0.99999994"
       height="1.9999999"
       x="18.000008"
       y="-25.000027"
       transform="matrix(0,-1,-1,0,0,0)" />
    <rect
       style="fill:#ffffff;fill-opacity:1;stroke-width:0.50000012"
       id="rect5299-9-6-9-7"
       width="0.99999994"
       height="1.9999999"
       x="18.999996"
       y="-24.000011"
       transform="matrix(0,-1,-1,0,0,0)" />
    <rect
       y="-25.999981"
       x="-27.999992"
       height="0.99999994"
       width="11"
       id="rect934-3-1-6-0"
       style="fill:#ffffff;fill-opacity:1;stroke-width:0.99999994"
       transform="scale(-1,1)" />
    <rect
       transform="rotate(-90)"
       y="15.999989"
       x="14.000004"
       height="1.9999999"
       width="0.99999994"
       id="rect392-9"
       style="fill:#ffffff;fill-opacity:1;stroke-width:0.50000006" />
    <rect
       transform="matrix(0,-1,-1,0,0,0)"
       y="-29.000031"
       x="14.000004"
       height="1.9999999"
       width="0.99999994"
       id="rect394-3"
       style="fill:#ffffff;fill-opacity:1;stroke-width:0.50000006" />
    <rect
       transform="matrix(0,-1,-1,0,0,0)"
       y="-23.000008"
       x="19.999996"
       height="0.99999607"
       width="0.99999994"
       id="rect60-6"
       style="fill:#ffffff;fill-opacity:1;stroke-width:0.50000012" />
  </g>
  <g
     id="g10987"
     style="fill:#000000">
    <rect
       transform="rotate(-90)"
       y="17.000004"
       x="14.999989"
       height="1.9999999"
       width="0.99999994"
       id="rect10959"
       style="fill:#000000;fill-opacity:1;stroke-width:0.50000006" />
    <rect
       transform="rotate(-90)"
       y="17.999989"
       x="16.000004"
       height="1.9999999"
       width="0.99999994"
       id="rect10961"
       style="fill:#000000;fill-opacity:1;stroke-width:0.50000012" />
    <rect
       transform="rotate(-90)"
       y="19.000004"
       x="16.999992"
       height="1.9999999"
       width="0.99999994"
       id="rect10963"
       style="fill:#000000;fill-opacity:1;stroke-width:0.50000012" />
    <rect
       transform="rotate(-90)"
       y="19.999992"
       x="18.000008"
       height="1.9999999"
       width="0.99999994"
       id="rect10965"
       style="fill:#000000;fill-opacity:1;stroke-width:0.50000012" />
    <rect
       transform="rotate(-90)"
       y="21.000008"
       x="18.999996"
       height="1.9999999"
       width="0.99999994"
       id="rect10967"
       style="fill:#000000;fill-opacity:1;stroke-width:0.50000012" />
    <rect
       transform="matrix(0,-1,-1,0,0,0)"
       y="-28.000015"
       x="14.999989"
       height="1.9999999"
       width="0.99999994"
       id="rect10969"
       style="fill:#000000;fill-opacity:1;stroke-width:0.50000006" />
    <rect
       transform="matrix(0,-1,-1,0,0,0)"
       y="-27.000031"
       x="16.000004"
       height="1.9999999"
       width="0.99999994"
       id="rect10971"
       style="fill:#000000;fill-opacity:1;stroke-width:0.50000012" />
    <rect
       transform="matrix(0,-1,-1,0,0,0)"
       y="-26.000015"
       x="16.999992"
       height="1.9999999"
       width="0.99999994"
       id="rect10973"
       style="fill:#000000;fill-opacity:1;stroke-width:0.50000012" />
    <rect
       transform="matrix(0,-1,-1,0,0,0)"
       y="-25.000027"
       x="18.000008"
       height="1.9999999"
       width="0.99999994"
       id="rect10975"
       style="fill:#000000;fill-opacity:1;stroke-width:0.50000012" />
    <rect
       transform="matrix(0,-1,-1,0,0,0)"
       y="-24.000011"
       x="18.999996"
       height="1.9999999"
       width="0.99999994"
       id="rect10977"
       style="fill:#000000;fill-opacity:1;stroke-width:0.50000012" />
    <rect
       transform="scale(-1,1)"
       style="fill:#000000;fill-opacity:1;stroke-width:0.99999994"
       id="rect10979"
       width="11"
       height="0.99999994"
       x="-27.999992"
       y="-25.999981" />
    <rect
       style="fill:#000000;fill-opacity:1;stroke-width:0.50000006"
       id="rect10981"
       width="0.99999994"
       height="1.9999999"
       x="14.000004"
       y="15.999989"
       transform="rotate(-90)" />
    <rect
       style="fill:#000000;fill-opacity:1;stroke-width:0.50000006"
       id="rect10983"
       width="0.99999994"
       height="1.9999999"
       x="14.000004"
       y="-29.000031"
       transform="matrix(0,-1,-1,0,0,0)" />
    <rect
       style="fill:#000000;fill-opacity:1;stroke-width:0.50000012"
       id="rect10985"
       width="0.99999994"
       height="0.99999607"
       x="19.999996"
       y="-23.000008"
       transform="matrix(0,-1,-1,0,0,0)" />
  </g>
  <g
     id="g11017"
     transform="translate(14)"
     style="fill:#bfbfbf;fill-opacity:1">
    <rect
       style="fill:#bfbfbf;fill-opacity:1;stroke-width:0.50000006"
       id="rect10989"
       width="0.99999994"
       height="1.9999999"
       x="14.999989"
       y="17.000004"
       transform="rotate(-90)" />
    <rect
       style="fill:#bfbfbf;fill-opacity:1;stroke-width:0.50000012"
       id="rect10991"
       width="0.99999994"
       height="1.9999999"
       x="16.000004"
       y="17.999989"
       transform="rotate(-90)" />
    <rect
       style="fill:#bfbfbf;fill-opacity:1;stroke-width:0.50000012"
       id="rect10993"
       width="0.99999994"
       height="1.9999999"
       x="16.999992"
       y="19.000004"
       transform="rotate(-90)" />
    <rect
       style="fill:#bfbfbf;fill-opacity:1;stroke-width:0.50000012"
       id="rect10995"
       width="0.99999994"
       height="1.9999999"
       x="18.000008"
       y="19.999992"
       transform="rotate(-90)" />
    <rect
       style="fill:#bfbfbf;fill-opacity:1;stroke-width:0.50000012"
       id="rect10997"
       width="0.99999994"
       height="1.9999999"
       x="18.999996"
       y="21.000008"
       transform="rotate(-90)" />
    <rect
       style="fill:#bfbfbf;fill-opacity:1;stroke-width:0.50000006"
       id="rect10999"
       width="0.99999994"
       height="1.9999999"
       x="14.999989"
       y="-28.000015"
       transform="matrix(0,-1,-1,0,0,0)" />
    <rect
       style="fill:#bfbfbf;fill-opacity:1;stroke-width:0.50000012"
       id="rect11001"
       width="0.99999994"
       height="1.9999999"
       x="16.000004"
       y="-27.000031"
       transform="matrix(0,-1,-1,0,0,0)" />
    <rect
       style="fill:#bfbfbf;fill-opacity:1;stroke-width:0.50000012"
       id="rect11003"
       width="0.99999994"
       height="1.9999999"
       x="16.999992"
       y="-26.000015"
       transform="matrix(0,-1,-1,0,0,0)" />
    <rect
       style="fill:#bfbfbf;fill-opacity:1;stroke-width:0.50000012"
       id="rect11005"
       width="0.99999994"
       height="1.9999999"
       x="18.000008"
       y="-25.000027"
       transform="matrix(0,-1,-1,0,0,0)" />
    <rect
       style="fill:#bfbfbf;fill-opacity:1;stroke-width:0.50000012"
       id="rect11007"
       width="0.99999994"
       height="1.9999999"
       x="18.999996"
       y="-24.000011"
       transform="matrix(0,-1,-1,0,0,0)" />
    <rect
       y="-25.999981"
       x="-27.999992"
       height="0.99999994"
       width="11"
       id="rect11009"
       style="fill:#bfbfbf;fill-opacity:1;stroke-width:0.99999994"
       transform="scale(-1,1)" />
    <rect
       transform="rotate(-90)"
       y="15.999989"
       x="14.000004"
       height="1.9999999"
       width="0.99999994"
       id="rect11011"
       style="fill:#bfbfbf;fill-opacity:1;stroke-width:0.50000006" />
    <rect
       transform="matrix(0,-1,-1,0,0,0)"
       y="-29.000031"
       x="14.000004"
       height="1.9999999"
       width="0.99999994"
       id="rect11013"
       style="fill:#bfbfbf;fill-opacity:1;stroke-width:0.50000006" />
    <rect
       transform="matrix(0,-1,-1,0,0,0)"
       y="-23.000008"
       x="19.999996"
       height="0.99999607"
       width="0.99999994"
       id="rect11015"
       style="fill:#bfbfbf;fill-opacity:1;stroke-width:0.50000012" />
  </g>
  <g
     id="active-center"
     inkscape:label="#g11145">
    <rect
       style="fill:#800000;fill-opacity:1;stroke-width:0.99999994"
       id="rect5509"
       width="45"
       height="30"
       x="-3.3837892e-08"
       y="2.9052734e-07" />
    <use
       height="100%"
       width="100%"
       transform="translate(13.99999,34.999993)"
       id="use11139"
       xlink:href="#g10957"
       y="0"
       x="0" />
  </g>
  <g
     id="deactivated-center"
     inkscape:label="#g11151">
    <rect
       y="1.7456056e-08"
       x="135"
       height="30"
       width="45"
       id="rect61"
       style="fill:#000000;fill-opacity:1;stroke-width:0.99999994" />
    <use
       height="100%"
       width="100%"
       transform="translate(120.99999,34.999992)"
       id="use11147"
       xlink:href="#g11017"
       y="0"
       x="0" />
  </g>
  <g
     id="deactivated-inactive-center"
     inkscape:label="#g11157">
    <rect
       style="fill:#333333;fill-opacity:1;stroke-width:0.99999994"
       id="rect106"
       width="45"
       height="30"
       x="135"
       y="30" />
    <use
       height="100%"
       width="100%"
       transform="translate(120.99999,64.999992)"
       id="use11153"
       xlink:href="#g11017"
       y="0"
       x="0" />
  </g>
  <g
     id="inactive-center"
     inkscape:label="#g11163">
    <rect
       y="30"
       x="-3.3837892e-08"
       height="30"
       width="45"
       id="rect74"
       style="fill:#999999;fill-opacity:1;stroke-width:0.99999994" />
    <use
       height="100%"
       width="100%"
       transform="translate(-9.5705811e-6,64.999992)"
       id="use11159"
       xlink:href="#g10987"
       y="0"
       x="0" />
  </g>
  <g
     id="hover-center"
     inkscape:label="#g11169">
    <rect
       y="2.9052734e-07"
       x="45"
       height="30"
       width="45"
       id="rect933"
       style="fill:#00ff00;fill-opacity:1;stroke-width:0.99999994" />
    <use
       height="100%"
       width="100%"
       transform="translate(44.99999,34.999993)"
       id="use11165"
       xlink:href="#g10987"
       y="0"
       x="0" />
  </g>
  <g
     id="hover-inactive-center"
     inkscape:label="#g11175">
    <rect
       style="fill:#009900;fill-opacity:1;stroke-width:0.99999994"
       id="rect138"
       width="45"
       height="30"
       x="45"
       y="30" />
    <use
       height="100%"
       width="100%"
       transform="translate(44.99999,64.999992)"
       id="use11171"
       xlink:href="#g10987"
       y="0"
       x="0" />
  </g>
  <g
     id="pressed-center"
     inkscape:label="#g11181">
    <rect
       style="fill:#ffcc00;fill-opacity:1;stroke-width:0.99999994"
       id="rect965"
       width="45"
       height="30"
       x="90"
       y="2.9052734e-07" />
    <use
       height="100%"
       width="100%"
       transform="translate(89.99999,34.999993)"
       id="use11177"
       xlink:href="#g10987"
       y="0"
       x="0" />
  </g>
  <g
     id="pressed-inactive-center"
     inkscape:label="#g11187">
    <rect
       y="30"
       x="90"
       height="30"
       width="45"
       id="rect170"
       style="fill:#ff9900;fill-opacity:1;stroke-width:0.99999994" />
    <use
       height="100%"
       width="100%"
       transform="translate(89.99999,64.999992)"
       id="use11183"
       xlink:href="#g10987"
       y="0"
       x="0" />
  </g>
</svg>
