<?xml version="1.0" encoding="UTF-8" standalone="no"?>
<svg
   xmlns:dc="http://purl.org/dc/elements/1.1/"
   xmlns:cc="http://creativecommons.org/ns#"
   xmlns:rdf="http://www.w3.org/1999/02/22-rdf-syntax-ns#"
   xmlns:svg="http://www.w3.org/2000/svg"
   xmlns="http://www.w3.org/2000/svg"
   xmlns:sodipodi="http://sodipodi.sourceforge.net/DTD/sodipodi-0.dtd"
   xmlns:inkscape="http://www.inkscape.org/namespaces/inkscape"
   height="60"
   id="layer1"
   width="180"
   version="1.1"
   sodipodi:docname="shade.svg"
   inkscape:version="0.92.4 5da689c313, 2019-01-14">
  <metadata
     id="metadata23">
    <rdf:RDF>
      <cc:Work
         rdf:about="">
        <dc:format>image/svg+xml</dc:format>
        <dc:type
           rdf:resource="http://purl.org/dc/dcmitype/StillImage" />
        <dc:title />
      </cc:Work>
    </rdf:RDF>
  </metadata>
  <defs
     id="defs21" />
  <sodipodi:namedview
     pagecolor="#fffffe"
     bordercolor="#666666"
     borderopacity="1"
     objecttolerance="10"
     gridtolerance="10"
     guidetolerance="10"
     inkscape:pageopacity="1"
     inkscape:pageshadow="2"
     inkscape:window-width="954"
     inkscape:window-height="996"
     id="namedview19"
     showgrid="true"
     inkscape:zoom="3.7083823"
     inkscape:cx="76.169668"
     inkscape:cy="40.183146"
     inkscape:window-x="0"
     inkscape:window-y="44"
     inkscape:window-maximized="0"
     inkscape:current-layer="pressed-center"
     showguides="true"
     inkscape:guide-bbox="true">
    <inkscape:grid
       type="xygrid"
       id="grid4611" />
  </sodipodi:namedview>
  <!-- 
	Generated using the Perl SVG Module V2.49
	by Ronan Oger
	Info: http://www.roitsystems.com/
 -->
  <g
     transform="matrix(0,-0.75000001,0.75000001,0,-9.2508408,3.898125)"
     id="g5121"
     style="fill:#000000" />
  <g
     id="g5390-3-1"
     transform="matrix(-3.7795276,0,0,3.7795276,359.8317,-402.83254)"
     style="fill:#000000" />
  <g
     id="active-center"
     inkscape:label="#g351">
    <rect
       style="fill:#0000f1;fill-opacity:1;stroke-width:0.99999994"
       id="rect5509"
       width="45"
       height="30"
       x="-3.3837892e-08"
       y="2.9052734e-07" />
    <g
       transform="translate(-9.5705811e-6,34.999993)"
       id="use11139"
       style="fill:#fffff1;fill-opacity:1">
      <rect
         transform="rotate(-90)"
         y="17.000004"
         x="14.999989"
         height="1.9999999"
         width="0.99999994"
         id="rect289"
         style="fill:#fffff1;fill-opacity:1;stroke-width:0.50000006" />
      <rect
         transform="rotate(-90)"
         y="17.999989"
         x="16.000004"
         height="1.9999999"
         width="0.99999994"
         id="rect291"
         style="fill:#fffff1;fill-opacity:1;stroke-width:0.50000012" />
      <rect
         transform="rotate(-90)"
         y="19.000004"
         x="16.999992"
         height="1.9999999"
         width="0.99999994"
         id="rect293"
         style="fill:#fffff1;fill-opacity:1;stroke-width:0.50000012" />
      <rect
         transform="rotate(-90)"
         y="19.999992"
         x="18.000008"
         height="1.9999999"
         width="0.99999994"
         id="rect295"
         style="fill:#fffff1;fill-opacity:1;stroke-width:0.50000012" />
      <rect
         transform="rotate(-90)"
         y="21.000008"
         x="18.999996"
         height="1.9999999"
         width="0.99999994"
         id="rect297"
         style="fill:#fffff1;fill-opacity:1;stroke-width:0.50000012" />
      <rect
         transform="matrix(0,-1,-1,0,0,0)"
         y="-28.000015"
         x="14.999989"
         height="1.9999999"
         width="0.99999994"
         id="rect299"
         style="fill:#fffff1;fill-opacity:1;stroke-width:0.50000006" />
      <rect
         transform="matrix(0,-1,-1,0,0,0)"
         y="-27.000031"
         x="16.000004"
         height="1.9999999"
         width="0.99999994"
         id="rect301"
         style="fill:#fffff1;fill-opacity:1;stroke-width:0.50000012" />
      <rect
         transform="matrix(0,-1,-1,0,0,0)"
         y="-26.000015"
         x="16.999992"
         height="1.9999999"
         width="0.99999994"
         id="rect303"
         style="fill:#fffff1;fill-opacity:1;stroke-width:0.50000012" />
      <rect
         transform="matrix(0,-1,-1,0,0,0)"
         y="-25.000027"
         x="18.000008"
         height="1.9999999"
         width="0.99999994"
         id="rect305"
         style="fill:#fffff1;fill-opacity:1;stroke-width:0.50000012" />
      <rect
         transform="matrix(0,-1,-1,0,0,0)"
         y="-24.000011"
         x="18.999996"
         height="1.9999999"
         width="0.99999994"
         id="rect307"
         style="fill:#fffff1;fill-opacity:1;stroke-width:0.50000012" />
      <rect
         transform="scale(-1,1)"
         style="fill:#fffff1;fill-opacity:1;stroke-width:0.99999994"
         id="rect309"
         width="11"
         height="0.99999994"
         x="-27.999992"
         y="-25.999981" />
      <rect
         style="fill:#fffff1;fill-opacity:1;stroke-width:0.50000006"
         id="rect311"
         width="0.99999994"
         height="1.9999999"
         x="14.000004"
         y="15.999989"
         transform="rotate(-90)" />
      <rect
         style="fill:#fffff1;fill-opacity:1;stroke-width:0.50000006"
         id="rect313"
         width="0.99999994"
         height="1.9999999"
         x="14.000004"
         y="-29.000031"
         transform="matrix(0,-1,-1,0,0,0)" />
      <rect
         style="fill:#fffff1;fill-opacity:1;stroke-width:0.50000012"
         id="rect315"
         width="0.99999994"
         height="0.99999607"
         x="19.999996"
         y="-23.000008"
         transform="matrix(0,-1,-1,0,0,0)" />
    </g>
  </g>
  <g
     id="deactivated-center"
     inkscape:label="#g453">
    <rect
       y="1.7456056e-08"
       x="135"
       height="30"
       width="45"
       id="rect61"
       style="fill:#0000f4;fill-opacity:1;stroke-width:0.99999994" />
    <g
       style="fill:#fffff4;fill-opacity:1"
       transform="translate(134.99999,34.999992)"
       id="use11147">
      <rect
         transform="rotate(-90)"
         y="17.000004"
         x="14.999989"
         height="1.9999999"
         width="0.99999994"
         id="rect79"
         style="fill:#fffff4;fill-opacity:1;stroke-width:0.50000006" />
      <rect
         transform="rotate(-90)"
         y="17.999989"
         x="16.000004"
         height="1.9999999"
         width="0.99999994"
         id="rect81"
         style="fill:#fffff4;fill-opacity:1;stroke-width:0.50000012" />
      <rect
         transform="rotate(-90)"
         y="19.000004"
         x="16.999992"
         height="1.9999999"
         width="0.99999994"
         id="rect83"
         style="fill:#fffff4;fill-opacity:1;stroke-width:0.50000012" />
      <rect
         transform="rotate(-90)"
         y="19.999992"
         x="18.000008"
         height="1.9999999"
         width="0.99999994"
         id="rect85"
         style="fill:#fffff4;fill-opacity:1;stroke-width:0.50000012" />
      <rect
         transform="rotate(-90)"
         y="21.000008"
         x="18.999996"
         height="1.9999999"
         width="0.99999994"
         id="rect87"
         style="fill:#fffff4;fill-opacity:1;stroke-width:0.50000012" />
      <rect
         transform="matrix(0,-1,-1,0,0,0)"
         y="-28.000015"
         x="14.999989"
         height="1.9999999"
         width="0.99999994"
         id="rect89"
         style="fill:#fffff4;fill-opacity:1;stroke-width:0.50000006" />
      <rect
         transform="matrix(0,-1,-1,0,0,0)"
         y="-27.000031"
         x="16.000004"
         height="1.9999999"
         width="0.99999994"
         id="rect91"
         style="fill:#fffff4;fill-opacity:1;stroke-width:0.50000012" />
      <rect
         transform="matrix(0,-1,-1,0,0,0)"
         y="-26.000015"
         x="16.999992"
         height="1.9999999"
         width="0.99999994"
         id="rect93"
         style="fill:#fffff4;fill-opacity:1;stroke-width:0.50000012" />
      <rect
         transform="matrix(0,-1,-1,0,0,0)"
         y="-25.000027"
         x="18.000008"
         height="1.9999999"
         width="0.99999994"
         id="rect95"
         style="fill:#fffff4;fill-opacity:1;stroke-width:0.50000012" />
      <rect
         transform="matrix(0,-1,-1,0,0,0)"
         y="-24.000011"
         x="18.999996"
         height="1.9999999"
         width="0.99999994"
         id="rect97"
         style="fill:#fffff4;fill-opacity:1;stroke-width:0.50000012" />
      <rect
         transform="scale(-1,1)"
         style="fill:#fffff4;fill-opacity:1;stroke-width:0.99999994"
         id="rect99"
         width="11"
         height="0.99999994"
         x="-27.999992"
         y="-25.999981" />
      <rect
         style="fill:#fffff4;fill-opacity:1;stroke-width:0.50000006"
         id="rect101"
         width="0.99999994"
         height="1.9999999"
         x="14.000004"
         y="15.999989"
         transform="rotate(-90)" />
      <rect
         style="fill:#fffff4;fill-opacity:1;stroke-width:0.50000006"
         id="rect103"
         width="0.99999994"
         height="1.9999999"
         x="14.000004"
         y="-29.000031"
         transform="matrix(0,-1,-1,0,0,0)" />
      <rect
         style="fill:#fffff4;fill-opacity:1;stroke-width:0.50000012"
         id="rect105"
         width="0.99999994"
         height="0.99999607"
         x="19.999996"
         y="-23.000008"
         transform="matrix(0,-1,-1,0,0,0)" />
    </g>
  </g>
  <g
     id="deactivated-inactive-center"
     inkscape:label="#g605">
    <rect
       style="fill:#0000f8;fill-opacity:1;stroke-width:0.99999994"
       id="rect106"
       width="45"
       height="30"
       x="135"
       y="30" />
    <g
       style="fill:#fffff8;fill-opacity:1"
       transform="translate(134.99999,64.999992)"
       id="use11153">
      <rect
         transform="rotate(-90)"
         y="17.000004"
         x="14.999989"
         height="1.9999999"
         width="0.99999994"
         id="rect109"
         style="fill:#fffff8;fill-opacity:1;stroke-width:0.50000006" />
      <rect
         transform="rotate(-90)"
         y="17.999989"
         x="16.000004"
         height="1.9999999"
         width="0.99999994"
         id="rect111"
         style="fill:#fffff8;fill-opacity:1;stroke-width:0.50000012" />
      <rect
         transform="rotate(-90)"
         y="19.000004"
         x="16.999992"
         height="1.9999999"
         width="0.99999994"
         id="rect113"
         style="fill:#fffff8;fill-opacity:1;stroke-width:0.50000012" />
      <rect
         transform="rotate(-90)"
         y="19.999992"
         x="18.000008"
         height="1.9999999"
         width="0.99999994"
         id="rect115"
         style="fill:#fffff8;fill-opacity:1;stroke-width:0.50000012" />
      <rect
         transform="rotate(-90)"
         y="21.000008"
         x="18.999996"
         height="1.9999999"
         width="0.99999994"
         id="rect117"
         style="fill:#fffff8;fill-opacity:1;stroke-width:0.50000012" />
      <rect
         transform="matrix(0,-1,-1,0,0,0)"
         y="-28.000015"
         x="14.999989"
         height="1.9999999"
         width="0.99999994"
         id="rect119"
         style="fill:#fffff8;fill-opacity:1;stroke-width:0.50000006" />
      <rect
         transform="matrix(0,-1,-1,0,0,0)"
         y="-27.000031"
         x="16.000004"
         height="1.9999999"
         width="0.99999994"
         id="rect121"
         style="fill:#fffff8;fill-opacity:1;stroke-width:0.50000012" />
      <rect
         transform="matrix(0,-1,-1,0,0,0)"
         y="-26.000015"
         x="16.999992"
         height="1.9999999"
         width="0.99999994"
         id="rect123"
         style="fill:#fffff8;fill-opacity:1;stroke-width:0.50000012" />
      <rect
         transform="matrix(0,-1,-1,0,0,0)"
         y="-25.000027"
         x="18.000008"
         height="1.9999999"
         width="0.99999994"
         id="rect125"
         style="fill:#fffff8;fill-opacity:1;stroke-width:0.50000012" />
      <rect
         transform="matrix(0,-1,-1,0,0,0)"
         y="-24.000011"
         x="18.999996"
         height="1.9999999"
         width="0.99999994"
         id="rect127"
         style="fill:#fffff8;fill-opacity:1;stroke-width:0.50000012" />
      <rect
         transform="scale(-1,1)"
         style="fill:#fffff8;fill-opacity:1;stroke-width:0.99999994"
         id="rect129"
         width="11"
         height="0.99999994"
         x="-27.999992"
         y="-25.999981" />
      <rect
         style="fill:#fffff8;fill-opacity:1;stroke-width:0.50000006"
         id="rect131"
         width="0.99999994"
         height="1.9999999"
         x="14.000004"
         y="15.999989"
         transform="rotate(-90)" />
      <rect
         style="fill:#fffff8;fill-opacity:1;stroke-width:0.50000006"
         id="rect133"
         width="0.99999994"
         height="1.9999999"
         x="14.000004"
         y="-29.000031"
         transform="matrix(0,-1,-1,0,0,0)" />
      <rect
         style="fill:#fffff8;fill-opacity:1;stroke-width:0.50000012"
         id="rect135"
         width="0.99999994"
         height="0.99999607"
         x="19.999996"
         y="-23.000008"
         transform="matrix(0,-1,-1,0,0,0)" />
    </g>
  </g>
  <g
     id="inactive-center"
     inkscape:label="#g503">
    <rect
       y="30"
       x="-3.3837892e-08"
       height="30"
       width="45"
       id="rect74"
       style="fill:#0000f5;fill-opacity:1;stroke-width:0.99999994" />
    <g
       style="fill:#fffff5;fill-opacity:1"
       id="use11159"
       transform="translate(-9.5705811e-6,64.999992)">
      <rect
         style="fill:#fffff5;fill-opacity:1;stroke-width:0.50000006"
         id="rect139"
         width="0.99999994"
         height="1.9999999"
         x="14.999989"
         y="17.000004"
         transform="rotate(-90)" />
      <rect
         style="fill:#fffff5;fill-opacity:1;stroke-width:0.50000012"
         id="rect141"
         width="0.99999994"
         height="1.9999999"
         x="16.000004"
         y="17.999989"
         transform="rotate(-90)" />
      <rect
         style="fill:#fffff5;fill-opacity:1;stroke-width:0.50000012"
         id="rect143"
         width="0.99999994"
         height="1.9999999"
         x="16.999992"
         y="19.000004"
         transform="rotate(-90)" />
      <rect
         style="fill:#fffff5;fill-opacity:1;stroke-width:0.50000012"
         id="rect145"
         width="0.99999994"
         height="1.9999999"
         x="18.000008"
         y="19.999992"
         transform="rotate(-90)" />
      <rect
         style="fill:#fffff5;fill-opacity:1;stroke-width:0.50000012"
         id="rect147"
         width="0.99999994"
         height="1.9999999"
         x="18.999996"
         y="21.000008"
         transform="rotate(-90)" />
      <rect
         style="fill:#fffff5;fill-opacity:1;stroke-width:0.50000006"
         id="rect149"
         width="0.99999994"
         height="1.9999999"
         x="14.999989"
         y="-28.000015"
         transform="matrix(0,-1,-1,0,0,0)" />
      <rect
         style="fill:#fffff5;fill-opacity:1;stroke-width:0.50000012"
         id="rect151"
         width="0.99999994"
         height="1.9999999"
         x="16.000004"
         y="-27.000031"
         transform="matrix(0,-1,-1,0,0,0)" />
      <rect
         style="fill:#fffff5;fill-opacity:1;stroke-width:0.50000012"
         id="rect153"
         width="0.99999994"
         height="1.9999999"
         x="16.999992"
         y="-26.000015"
         transform="matrix(0,-1,-1,0,0,0)" />
      <rect
         style="fill:#fffff5;fill-opacity:1;stroke-width:0.50000012"
         id="rect155"
         width="0.99999994"
         height="1.9999999"
         x="18.000008"
         y="-25.000027"
         transform="matrix(0,-1,-1,0,0,0)" />
      <rect
         style="fill:#fffff5;fill-opacity:1;stroke-width:0.50000012"
         id="rect157"
         width="0.99999994"
         height="1.9999999"
         x="18.999996"
         y="-24.000011"
         transform="matrix(0,-1,-1,0,0,0)" />
      <rect
         y="-25.999981"
         x="-27.999992"
         height="0.99999994"
         width="11"
         id="rect159"
         style="fill:#fffff5;fill-opacity:1;stroke-width:0.99999994"
         transform="scale(-1,1)" />
      <rect
         transform="rotate(-90)"
         y="15.999989"
         x="14.000004"
         height="1.9999999"
         width="0.99999994"
         id="rect161"
         style="fill:#fffff5;fill-opacity:1;stroke-width:0.50000006" />
      <rect
         transform="matrix(0,-1,-1,0,0,0)"
         y="-29.000031"
         x="14.000004"
         height="1.9999999"
         width="0.99999994"
         id="rect163"
         style="fill:#fffff5;fill-opacity:1;stroke-width:0.50000006" />
      <rect
         transform="matrix(0,-1,-1,0,0,0)"
         y="-23.000008"
         x="19.999996"
         height="0.99999607"
         width="0.99999994"
         id="rect165"
         style="fill:#fffff5;fill-opacity:1;stroke-width:0.50000012" />
    </g>
  </g>
  <g
     id="hover-center"
     inkscape:label="#g385">
    <rect
       y="2.9052734e-07"
       x="45"
       height="30"
       width="45"
       id="rect933"
       style="fill:#0000f2;fill-opacity:1;stroke-width:0.99999994" />
    <g
       style="fill:#fffff2;fill-opacity:1"
       id="use11165"
       transform="translate(44.99999,34.999993)">
      <rect
         style="fill:#fffff2;fill-opacity:1;stroke-width:0.50000006"
         id="rect169"
         width="0.99999994"
         height="1.9999999"
         x="14.999989"
         y="17.000004"
         transform="rotate(-90)" />
      <rect
         style="fill:#fffff2;fill-opacity:1;stroke-width:0.50000012"
         id="rect171"
         width="0.99999994"
         height="1.9999999"
         x="16.000004"
         y="17.999989"
         transform="rotate(-90)" />
      <rect
         style="fill:#fffff2;fill-opacity:1;stroke-width:0.50000012"
         id="rect173"
         width="0.99999994"
         height="1.9999999"
         x="16.999992"
         y="19.000004"
         transform="rotate(-90)" />
      <rect
         style="fill:#fffff2;fill-opacity:1;stroke-width:0.50000012"
         id="rect175"
         width="0.99999994"
         height="1.9999999"
         x="18.000008"
         y="19.999992"
         transform="rotate(-90)" />
      <rect
         style="fill:#fffff2;fill-opacity:1;stroke-width:0.50000012"
         id="rect177"
         width="0.99999994"
         height="1.9999999"
         x="18.999996"
         y="21.000008"
         transform="rotate(-90)" />
      <rect
         style="fill:#fffff2;fill-opacity:1;stroke-width:0.50000006"
         id="rect179"
         width="0.99999994"
         height="1.9999999"
         x="14.999989"
         y="-28.000015"
         transform="matrix(0,-1,-1,0,0,0)" />
      <rect
         style="fill:#fffff2;fill-opacity:1;stroke-width:0.50000012"
         id="rect181"
         width="0.99999994"
         height="1.9999999"
         x="16.000004"
         y="-27.000031"
         transform="matrix(0,-1,-1,0,0,0)" />
      <rect
         style="fill:#fffff2;fill-opacity:1;stroke-width:0.50000012"
         id="rect183"
         width="0.99999994"
         height="1.9999999"
         x="16.999992"
         y="-26.000015"
         transform="matrix(0,-1,-1,0,0,0)" />
      <rect
         style="fill:#fffff2;fill-opacity:1;stroke-width:0.50000012"
         id="rect185"
         width="0.99999994"
         height="1.9999999"
         x="18.000008"
         y="-25.000027"
         transform="matrix(0,-1,-1,0,0,0)" />
      <rect
         style="fill:#fffff2;fill-opacity:1;stroke-width:0.50000012"
         id="rect187"
         width="0.99999994"
         height="1.9999999"
         x="18.999996"
         y="-24.000011"
         transform="matrix(0,-1,-1,0,0,0)" />
      <rect
         y="-25.999981"
         x="-27.999992"
         height="0.99999994"
         width="11"
         id="rect189"
         style="fill:#fffff2;fill-opacity:1;stroke-width:0.99999994"
         transform="scale(-1,1)" />
      <rect
         transform="rotate(-90)"
         y="15.999989"
         x="14.000004"
         height="1.9999999"
         width="0.99999994"
         id="rect191"
         style="fill:#fffff2;fill-opacity:1;stroke-width:0.50000006" />
      <rect
         transform="matrix(0,-1,-1,0,0,0)"
         y="-29.000031"
         x="14.000004"
         height="1.9999999"
         width="0.99999994"
         id="rect193"
         style="fill:#fffff2;fill-opacity:1;stroke-width:0.50000006" />
      <rect
         transform="matrix(0,-1,-1,0,0,0)"
         y="-23.000008"
         x="19.999996"
         height="0.99999607"
         width="0.99999994"
         id="rect195"
         style="fill:#fffff2;fill-opacity:1;stroke-width:0.50000012" />
    </g>
  </g>
  <g
     id="hover-inactive-center"
     inkscape:label="#g537">
    <rect
       style="fill:#0000f6;fill-opacity:1;stroke-width:0.99999994"
       id="rect138"
       width="45"
       height="30"
       x="45"
       y="30" />
    <g
       style="fill:#fffff6;fill-opacity:1"
       id="use11171"
       transform="translate(44.99999,64.999992)">
      <rect
         style="fill:#fffff6;fill-opacity:1;stroke-width:0.50000006"
         id="rect199"
         width="0.99999994"
         height="1.9999999"
         x="14.999989"
         y="17.000004"
         transform="rotate(-90)" />
      <rect
         style="fill:#fffff6;fill-opacity:1;stroke-width:0.50000012"
         id="rect201"
         width="0.99999994"
         height="1.9999999"
         x="16.000004"
         y="17.999989"
         transform="rotate(-90)" />
      <rect
         style="fill:#fffff6;fill-opacity:1;stroke-width:0.50000012"
         id="rect203"
         width="0.99999994"
         height="1.9999999"
         x="16.999992"
         y="19.000004"
         transform="rotate(-90)" />
      <rect
         style="fill:#fffff6;fill-opacity:1;stroke-width:0.50000012"
         id="rect205"
         width="0.99999994"
         height="1.9999999"
         x="18.000008"
         y="19.999992"
         transform="rotate(-90)" />
      <rect
         style="fill:#fffff6;fill-opacity:1;stroke-width:0.50000012"
         id="rect207"
         width="0.99999994"
         height="1.9999999"
         x="18.999996"
         y="21.000008"
         transform="rotate(-90)" />
      <rect
         style="fill:#fffff6;fill-opacity:1;stroke-width:0.50000006"
         id="rect209"
         width="0.99999994"
         height="1.9999999"
         x="14.999989"
         y="-28.000015"
         transform="matrix(0,-1,-1,0,0,0)" />
      <rect
         style="fill:#fffff6;fill-opacity:1;stroke-width:0.50000012"
         id="rect211"
         width="0.99999994"
         height="1.9999999"
         x="16.000004"
         y="-27.000031"
         transform="matrix(0,-1,-1,0,0,0)" />
      <rect
         style="fill:#fffff6;fill-opacity:1;stroke-width:0.50000012"
         id="rect213"
         width="0.99999994"
         height="1.9999999"
         x="16.999992"
         y="-26.000015"
         transform="matrix(0,-1,-1,0,0,0)" />
      <rect
         style="fill:#fffff6;fill-opacity:1;stroke-width:0.50000012"
         id="rect215"
         width="0.99999994"
         height="1.9999999"
         x="18.000008"
         y="-25.000027"
         transform="matrix(0,-1,-1,0,0,0)" />
      <rect
         style="fill:#fffff6;fill-opacity:1;stroke-width:0.50000012"
         id="rect217"
         width="0.99999994"
         height="1.9999999"
         x="18.999996"
         y="-24.000011"
         transform="matrix(0,-1,-1,0,0,0)" />
      <rect
         y="-25.999981"
         x="-27.999992"
         height="0.99999994"
         width="11"
         id="rect219"
         style="fill:#fffff6;fill-opacity:1;stroke-width:0.99999994"
         transform="scale(-1,1)" />
      <rect
         transform="rotate(-90)"
         y="15.999989"
         x="14.000004"
         height="1.9999999"
         width="0.99999994"
         id="rect221"
         style="fill:#fffff6;fill-opacity:1;stroke-width:0.50000006" />
      <rect
         transform="matrix(0,-1,-1,0,0,0)"
         y="-29.000031"
         x="14.000004"
         height="1.9999999"
         width="0.99999994"
         id="rect223"
         style="fill:#fffff6;fill-opacity:1;stroke-width:0.50000006" />
      <rect
         transform="matrix(0,-1,-1,0,0,0)"
         y="-23.000008"
         x="19.999996"
         height="0.99999607"
         width="0.99999994"
         id="rect225"
         style="fill:#fffff6;fill-opacity:1;stroke-width:0.50000012" />
    </g>
  </g>
  <g
     id="pressed-center"
     inkscape:label="#g419">
    <rect
       style="fill:#0000f3;fill-opacity:1;stroke-width:0.99999994"
       id="rect965"
       width="45"
       height="30"
       x="90"
       y="2.9052734e-07" />
    <g
       style="fill:#fffff3;fill-opacity:1"
       id="use11177"
       transform="translate(89.99999,34.999993)">
      <rect
         style="fill:#fffff3;fill-opacity:1;stroke-width:0.50000006"
         id="rect229"
         width="0.99999994"
         height="1.9999999"
         x="14.999989"
         y="17.000004"
         transform="rotate(-90)" />
      <rect
         style="fill:#fffff3;fill-opacity:1;stroke-width:0.50000012"
         id="rect231"
         width="0.99999994"
         height="1.9999999"
         x="16.000004"
         y="17.999989"
         transform="rotate(-90)" />
      <rect
         style="fill:#fffff3;fill-opacity:1;stroke-width:0.50000012"
         id="rect233"
         width="0.99999994"
         height="1.9999999"
         x="16.999992"
         y="19.000004"
         transform="rotate(-90)" />
      <rect
         style="fill:#fffff3;fill-opacity:1;stroke-width:0.50000012"
         id="rect235"
         width="0.99999994"
         height="1.9999999"
         x="18.000008"
         y="19.999992"
         transform="rotate(-90)" />
      <rect
         style="fill:#fffff3;fill-opacity:1;stroke-width:0.50000012"
         id="rect237"
         width="0.99999994"
         height="1.9999999"
         x="18.999996"
         y="21.000008"
         transform="rotate(-90)" />
      <rect
         style="fill:#fffff3;fill-opacity:1;stroke-width:0.50000006"
         id="rect239"
         width="0.99999994"
         height="1.9999999"
         x="14.999989"
         y="-28.000015"
         transform="matrix(0,-1,-1,0,0,0)" />
      <rect
         style="fill:#fffff3;fill-opacity:1;stroke-width:0.50000012"
         id="rect241"
         width="0.99999994"
         height="1.9999999"
         x="16.000004"
         y="-27.000031"
         transform="matrix(0,-1,-1,0,0,0)" />
      <rect
         style="fill:#fffff3;fill-opacity:1;stroke-width:0.50000012"
         id="rect243"
         width="0.99999994"
         height="1.9999999"
         x="16.999992"
         y="-26.000015"
         transform="matrix(0,-1,-1,0,0,0)" />
      <rect
         style="fill:#fffff3;fill-opacity:1;stroke-width:0.50000012"
         id="rect245"
         width="0.99999994"
         height="1.9999999"
         x="18.000008"
         y="-25.000027"
         transform="matrix(0,-1,-1,0,0,0)" />
      <rect
         style="fill:#fffff3;fill-opacity:1;stroke-width:0.50000012"
         id="rect247"
         width="0.99999994"
         height="1.9999999"
         x="18.999996"
         y="-24.000011"
         transform="matrix(0,-1,-1,0,0,0)" />
      <rect
         y="-25.999981"
         x="-27.999992"
         height="0.99999994"
         width="11"
         id="rect249"
         style="fill:#fffff3;fill-opacity:1;stroke-width:0.99999994"
         transform="scale(-1,1)" />
      <rect
         transform="rotate(-90)"
         y="15.999989"
         x="14.000004"
         height="1.9999999"
         width="0.99999994"
         id="rect251"
         style="fill:#fffff3;fill-opacity:1;stroke-width:0.50000006" />
      <rect
         transform="matrix(0,-1,-1,0,0,0)"
         y="-29.000031"
         x="14.000004"
         height="1.9999999"
         width="0.99999994"
         id="rect253"
         style="fill:#fffff3;fill-opacity:1;stroke-width:0.50000006" />
      <rect
         transform="matrix(0,-1,-1,0,0,0)"
         y="-23.000008"
         x="19.999996"
         height="0.99999607"
         width="0.99999994"
         id="rect255"
         style="fill:#fffff3;fill-opacity:1;stroke-width:0.50000012" />
    </g>
  </g>
  <g
     id="pressed-inactive-center"
     inkscape:label="#g571">
    <rect
       y="30"
       x="90"
       height="30"
       width="45"
       id="rect170"
       style="fill:#0000f7;fill-opacity:1;stroke-width:0.99999994" />
    <g
       style="fill:#fffff7;fill-opacity:1"
       id="use11183"
       transform="translate(89.99999,64.999992)">
      <rect
         style="fill:#fffff7;fill-opacity:1;stroke-width:0.50000006"
         id="rect259"
         width="0.99999994"
         height="1.9999999"
         x="14.999989"
         y="17.000004"
         transform="rotate(-90)" />
      <rect
         style="fill:#fffff7;fill-opacity:1;stroke-width:0.50000012"
         id="rect261"
         width="0.99999994"
         height="1.9999999"
         x="16.000004"
         y="17.999989"
         transform="rotate(-90)" />
      <rect
         style="fill:#fffff7;fill-opacity:1;stroke-width:0.50000012"
         id="rect263"
         width="0.99999994"
         height="1.9999999"
         x="16.999992"
         y="19.000004"
         transform="rotate(-90)" />
      <rect
         style="fill:#fffff7;fill-opacity:1;stroke-width:0.50000012"
         id="rect265"
         width="0.99999994"
         height="1.9999999"
         x="18.000008"
         y="19.999992"
         transform="rotate(-90)" />
      <rect
         style="fill:#fffff7;fill-opacity:1;stroke-width:0.50000012"
         id="rect267"
         width="0.99999994"
         height="1.9999999"
         x="18.999996"
         y="21.000008"
         transform="rotate(-90)" />
      <rect
         style="fill:#fffff7;fill-opacity:1;stroke-width:0.50000006"
         id="rect269"
         width="0.99999994"
         height="1.9999999"
         x="14.999989"
         y="-28.000015"
         transform="matrix(0,-1,-1,0,0,0)" />
      <rect
         style="fill:#fffff7;fill-opacity:1;stroke-width:0.50000012"
         id="rect271"
         width="0.99999994"
         height="1.9999999"
         x="16.000004"
         y="-27.000031"
         transform="matrix(0,-1,-1,0,0,0)" />
      <rect
         style="fill:#fffff7;fill-opacity:1;stroke-width:0.50000012"
         id="rect273"
         width="0.99999994"
         height="1.9999999"
         x="16.999992"
         y="-26.000015"
         transform="matrix(0,-1,-1,0,0,0)" />
      <rect
         style="fill:#fffff7;fill-opacity:1;stroke-width:0.50000012"
         id="rect275"
         width="0.99999994"
         height="1.9999999"
         x="18.000008"
         y="-25.000027"
         transform="matrix(0,-1,-1,0,0,0)" />
      <rect
         style="fill:#fffff7;fill-opacity:1;stroke-width:0.50000012"
         id="rect277"
         width="0.99999994"
         height="1.9999999"
         x="18.999996"
         y="-24.000011"
         transform="matrix(0,-1,-1,0,0,0)" />
      <rect
         y="-25.999981"
         x="-27.999992"
         height="0.99999994"
         width="11"
         id="rect279"
         style="fill:#fffff7;fill-opacity:1;stroke-width:0.99999994"
         transform="scale(-1,1)" />
      <rect
         transform="rotate(-90)"
         y="15.999989"
         x="14.000004"
         height="1.9999999"
         width="0.99999994"
         id="rect281"
         style="fill:#fffff7;fill-opacity:1;stroke-width:0.50000006" />
      <rect
         transform="matrix(0,-1,-1,0,0,0)"
         y="-29.000031"
         x="14.000004"
         height="1.9999999"
         width="0.99999994"
         id="rect283"
         style="fill:#fffff7;fill-opacity:1;stroke-width:0.50000006" />
      <rect
         transform="matrix(0,-1,-1,0,0,0)"
         y="-23.000008"
         x="19.999996"
         height="0.99999607"
         width="0.99999994"
         id="rect285"
         style="fill:#fffff7;fill-opacity:1;stroke-width:0.50000012" />
    </g>
  </g>
</svg>
